<svg width="18" height="19" viewBox="0 0 18 19" fill="none" xmlns="http://www.w3.org/2000/svg" class="landing-v2-address-search__pin-icon"><path d="M8.83483 17.2742C8.27983 17.2742 7.77733 16.9496 7.52233 16.4192L4.30483 9.6346C3.51733 7.96418 3.55483 5.99293 4.40983 4.34626C5.21983 2.78668 6.62983 1.78918 8.26483 1.61501C8.63233 1.57543 9.02233 1.57543 9.38983 1.61501C11.0248 1.78918 12.4273 2.78668 13.2448 4.34626C14.0998 5.99293 14.1448 7.96418 13.3498 9.6346C13.2073 9.92752 12.8773 10.0463 12.5923 9.90376C12.3148 9.75335 12.2023 9.3971 12.3373 9.10418C12.9598 7.7821 12.9298 6.22251 12.2473 4.91626C11.6398 3.70501 10.5523 2.92918 9.28483 2.7946C8.99233 2.76293 8.68483 2.76293 8.38483 2.7946C7.12483 2.92918 6.03733 3.70501 5.40733 4.91626C4.73233 6.22251 4.69483 7.7821 5.32483 9.10418L8.54233 15.8888C8.62483 16.0629 8.78233 16.0867 8.84233 16.0867C8.90233 16.0867 9.05983 16.0708 9.14233 15.8888L10.7548 12.4767C10.8973 12.1838 11.2348 12.065 11.5123 12.2075C11.7898 12.3579 11.9023 12.7142 11.7673 13.0071L10.1548 16.4192C9.89983 16.9417 9.39733 17.2742 8.83483 17.2742Z" fill="currentColor"/><path d="M8.83508 9.55546C7.56008 9.55546 6.51758 8.45505 6.51758 7.10921C6.51758 5.75546 7.56008 4.66296 8.83508 4.66296C10.1101 4.66296 11.1526 5.76338 11.1526 7.10921C11.1601 8.46296 10.1176 9.55546 8.83508 9.55546ZM8.83508 5.85046C8.17508 5.85046 7.64258 6.41255 7.64258 7.10921C7.64258 7.80588 8.17508 8.36796 8.83508 8.36796C9.49508 8.36796 10.0276 7.80588 10.0276 7.10921C10.0351 6.41255 9.49508 5.85046 8.83508 5.85046Z" fill="currentColor"/></svg>